# xmcd
#
# Track frame offsets:
#	150
#	14499
#	28019
#	55124
#	73630
#	83596
#	116688
#	147580
#	190227
#
# Disc length: 4123 seconds
#
# Revision: 1
# Processed by: cddbd v1.5.2PL0 Copyright (c) Steve Scherf et al.
# Submitted via: audiograbber 1.83.01
#
DISCID=7a101909
DTITLE=Grateful Dead - 69-06-21 Fillmore East, New York NY
DYEAR=1900
DGENRE=
TTITLE0=Dire Wolf
TTITLE1=Mama Tried
TTITLE2=High Time
TTITLE3=Dupree's Diamond Blues
TTITLE4=Yellow Dog Story
TTITLE5=Dark Star
TTITLE6=St Stephen
TTITLE7=The Eleven
TTITLE8=Turn On Your Lovelight
EXTD=
EXTT0=
EXTT1=
EXTT2=
EXTT3=
EXTT4=
EXTT5=
EXTT6=
EXTT7=
EXTT8=
PLAYORDER=
